<svg version="1.1" id="Layer_1" xmlns="http://www.w3.org/2000/svg" xmlns:xlink="http://www.w3.org/1999/xlink" x="0px" y="0px" viewBox="0 0 32 32" style="enable-background:new 0 0 512 512;" xml:space="preserve" width="32" height="32"><path style="fill:#B27214;" d="M16 4.402a0.55 0.55 0 0 1 -0.55 -0.55V0.55c0 -0.304 0.246 -0.55 0.55 -0.55s0.55 0.246 0.55 0.55V3.852a0.55 0.55 0 0 1 -0.55 0.55z"/><path style="fill:#9AD14B;" d="M24.097 13.833c1.353 2.606 2.159 5.538 2.159 7.911 0 5.664 -4.592 10.257 -10.256 10.257S5.744 27.408 5.744 21.744c0 -2.373 0.806 -5.305 2.159 -7.911 0.819 -1.577 1.528 -3.206 2.117 -4.883 1.075 -3.064 3.349 -6.088 5.98 -6.088 2.631 0 4.905 3.024 5.98 6.088 0.588 1.677 1.297 3.306 2.116 4.883z"/><path style="fill:#B27214;" d="M16 15.272c2.652 0 4.801 4.248 4.801 6.9s-2.149 4.801 -4.801 4.801 -4.801 -2.15 -4.801 -4.801 2.15 -6.9 4.801 -6.9z"/><path style="fill:#995C0D;" d="M13.69 22.172c0 -2.221 1.508 -5.561 3.556 -6.588 -0.397 -0.199 -0.815 -0.312 -1.246 -0.312 -2.652 0 -4.801 4.248 -4.801 6.9s2.15 4.801 4.801 4.801a4.807 4.807 0 0 0 1.246 -0.164c-2.047 -0.549 -3.556 -2.417 -3.556 -4.637z"/></svg>